<svg xmlns="http://www.w3.org/2000/svg" xmlns:xlink="http://www.w3.org/1999/xlink" viewBox="0 0 96.5 116.99"><defs><style>.ad67690f-953c-4527-ae59-6dd80f65e689{fill:none;}.f1a1aae4-f981-4b31-8fc6-f4fbc0944fcc{clip-path:url(#e3bf7fd0-5651-4f74-ace6-914986782690);}.a8fb549f-e17a-4b29-bd2d-654ae6710484{fill:#fff;}</style><clipPath id="e3bf7fd0-5651-4f74-ace6-914986782690" transform="translate(-22.72 -12.48)"><rect class="ad67690f-953c-4527-ae59-6dd80f65e689" width="141.94" height="141.94"/></clipPath></defs><g id="a29271dc-7bdb-4446-a855-06f65e60e692" data-name="Capa 2"><g id="a5028c54-6e4b-411f-b4c6-024f22812f3e" data-name="Capa 1"><g class="f1a1aae4-f981-4b31-8fc6-f4fbc0944fcc"><path class="a8fb549f-e17a-4b29-bd2d-654ae6710484" d="M49.77,26.39V42.05c0-2.12-2.21-4.12-4.1-5.42l-5.74-3.31c-1.81-1.3-3.75-3.17-3.72-5.18V12.48c0,2.13,2.17,4.08,4.06,5.37L45.79,21C47.67,22.35,49.8,24.29,49.77,26.39Z" transform="translate(-22.72 -12.48)"/><path class="a8fb549f-e17a-4b29-bd2d-654ae6710484" d="M119.22,103v15.68c0,2-2,3.86-3.77,5.16l-9.79,5.65-1.82-1.06-25.29-14.6V90c0-2.07-2.07-4-3.93-5.28L65,79.15l9.91-5.73c1.72-1.25,3.52-3,3.63-4.88l0-10.62c-.32-1.78-2.06-3.41-3.69-4.58L67.22,49c-1.83-1.3-3.84-3.18-3.84-5.22V31.17l0,0v-3c0,2,1.95,3.87,3.77,5.16l21,12c1.57,1.11,3.28,2.65,3.75,4.35v.07a1.07,1.07,0,0,0,.1.42,3.15,3.15,0,0,1,0,.44v9.59c0,2.11-2.15,4-4,5.35l0,0-9.43,5.69,9.7,5.6C90.05,78.19,92,80,92.1,82v35.87c.36,1.8,2.15,3.44,3.8,4.6l9.76,5.52V116.59c.13-1.9,1.94-3.65,3.67-4.89l6-3.46C117.17,106.94,119.22,105,119.22,103Z" transform="translate(-22.72 -12.48)"/><path class="a8fb549f-e17a-4b29-bd2d-654ae6710484" d="M63.39,55.38v58.43L36.28,129.47l-9.79-5.65c-1.82-1.3-3.77-3.15-3.77-5.16V103c0,2.06,2.05,4,3.9,5.26l6,3.46c1.73,1.24,3.54,3,3.67,4.89V128l10-5.66c1.75-1.28,3.56-3.08,3.56-5V45.13h0v-3c0,2.09,2.11,4,4,5.31L58.31,50A17.17,17.17,0,0,1,61,51.91c1.29,1.16,2.36,2.57,2.36,4.06v-.62S63.39,55.37,63.39,55.38Z" transform="translate(-22.72 -12.48)"/></g></g></g></svg>